<svg width="1200" height="900" viewBox="0 0 1200 900" fill="none" xmlns="http://www.w3.org/2000/svg">
  <defs>
    <linearGradient id="bg" x1="120" y1="120" x2="1080" y2="780" gradientUnits="userSpaceOnUse">
      <stop stop-color="#0E0E0E"/>
      <stop offset="1" stop-color="#1C1B1B"/>
    </linearGradient>
    <linearGradient id="accent" x1="240" y1="220" x2="960" y2="680" gradientUnits="userSpaceOnUse">
      <stop stop-color="#A6C8FF" stop-opacity="0.34"/>
      <stop offset="1" stop-color="#3CE9F5" stop-opacity="0.12"/>
    </linearGradient>
  </defs>
  <rect width="1200" height="900" rx="48" fill="url(#bg)"/>
  <circle cx="860" cy="190" r="150" fill="#3CE9F5" fill-opacity="0.07"/>
  <circle cx="290" cy="710" r="200" fill="#A6C8FF" fill-opacity="0.05"/>
  <circle cx="620" cy="500" r="260" fill="url(#accent)"/>

  <rect x="165" y="190" width="870" height="500" rx="36" stroke="#A6C8FF" stroke-opacity="0.24" stroke-width="3" fill="#131313" fill-opacity="0.45"/>
  <rect x="250" y="255" width="700" height="88" rx="22" fill="#0E0E0E" stroke="#FFFFFF" stroke-opacity="0.08"/>
  <rect x="250" y="380" width="700" height="260" rx="22" fill="#0E0E0E" stroke="#FFFFFF" stroke-opacity="0.08"/>

  <rect x="315" y="288" width="250" height="24" rx="12" fill="#A6C8FF" fill-opacity="0.20"/>
  <rect x="605" y="288" width="250" height="24" rx="12" fill="#3CE9F5" fill-opacity="0.20"/>

  <circle cx="340" cy="455" r="42" fill="#E5E2E1" fill-opacity="0.12" stroke="#A6C8FF" stroke-opacity="0.38"/>
  <circle cx="340" cy="455" r="18" fill="#A6C8FF" fill-opacity="0.42"/>
  <path d="M300 545C315 510 325 495 340 495C355 495 365 510 380 545" stroke="#A6C8FF" stroke-width="12" stroke-linecap="round"/>

  <circle cx="520" cy="455" r="42" fill="#E5E2E1" fill-opacity="0.12" stroke="#3CE9F5" stroke-opacity="0.38"/>
  <circle cx="520" cy="455" r="18" fill="#3CE9F5" fill-opacity="0.42"/>
  <path d="M480 545C495 510 505 495 520 495C535 495 545 510 560 545" stroke="#3CE9F5" stroke-width="12" stroke-linecap="round"/>

  <circle cx="700" cy="455" r="42" fill="#E5E2E1" fill-opacity="0.12" stroke="#45EDC0" stroke-opacity="0.38"/>
  <circle cx="700" cy="455" r="18" fill="#45EDC0" fill-opacity="0.42"/>
  <path d="M660 545C675 510 685 495 700 495C715 495 725 510 740 545" stroke="#45EDC0" stroke-width="12" stroke-linecap="round"/>

  <circle cx="880" cy="455" r="42" fill="#E5E2E1" fill-opacity="0.12" stroke="#A6C8FF" stroke-opacity="0.38"/>
  <circle cx="880" cy="455" r="18" fill="#A6C8FF" fill-opacity="0.42"/>
  <path d="M840 545C855 510 865 495 880 495C895 495 905 510 920 545" stroke="#A6C8FF" stroke-width="12" stroke-linecap="round"/>

  <path d="M430 455H470" stroke="#E5E2E1" stroke-opacity="0.18" stroke-width="8" stroke-linecap="round"/>
  <path d="M610 455H650" stroke="#E5E2E1" stroke-opacity="0.18" stroke-width="8" stroke-linecap="round"/>
  <path d="M790 455H830" stroke="#E5E2E1" stroke-opacity="0.18" stroke-width="8" stroke-linecap="round"/>

  <rect x="305" y="630" width="590" height="18" rx="9" fill="#3CE9F5" fill-opacity="0.16"/>
</svg>
